<svg width="970" height="713" viewBox="0 0 970 713" fill="none" xmlns="http://www.w3.org/2000/svg">
<path d="M96.8577 516.129C143.194 328.437 352.788 245.037 415.885 291.97C478.983 338.904 472.832 409.722 551.438 402.159C630.044 394.596 650.147 277.344 737.632 309.664C825.117 341.984 856.177 514.299 856.177 514.299" fill="white"/>
<path d="M190.868 93.3365V512.036" stroke="white" stroke-width="3" stroke-miterlimit="10"/>
<path d="M264.676 140.587V143.027C264.676 150.25 262.444 157.176 258.47 162.284C254.496 167.391 249.107 170.26 243.487 170.26H230.517C227.749 170.26 225.093 171.674 223.135 174.19C221.177 176.707 220.077 180.12 220.077 183.678" stroke="white" stroke-width="3" stroke-miterlimit="10"/>
<path d="M243.487 170.278H285.153C288.274 170.279 291.351 169.33 294.132 167.509C296.912 165.688 299.318 163.046 301.151 159.8" stroke="white" stroke-width="3" stroke-miterlimit="10"/>
<path d="M171.928 93.3182V150.73C171.925 158.417 173.101 166.03 175.388 173.133C177.676 180.236 181.03 186.69 185.259 192.126C187.037 194.412 188.448 197.125 189.411 200.112C190.373 203.099 190.868 206.3 190.868 209.533" stroke="white" stroke-width="3" stroke-miterlimit="10"/>
<path d="M220.162 140.587V178.604C220.163 188.542 218.567 198.373 215.475 207.482C212.382 216.59 207.86 224.78 202.191 231.539L201.541 232.314C198.174 236.326 195.489 241.189 193.652 246.597C191.816 252.005 190.868 257.842 190.868 263.743" stroke="white" stroke-width="3" stroke-miterlimit="10"/>
<path d="M146.506 119.862V225.629C146.506 241.457 149.084 257.109 154.075 271.579C159.065 286.049 166.358 299.016 175.483 309.646C180.328 315.289 184.2 322.174 186.85 329.857C189.5 337.54 190.869 345.851 190.868 354.255" stroke="white" stroke-width="3" stroke-miterlimit="10"/>
<path d="M102.699 92.9828C102.699 119.014 115.593 135.159 131.5 135.159H146.506" stroke="white" stroke-width="3" stroke-miterlimit="10"/>
<path d="M133.266 203.946V231.124C133.266 236.301 134.866 241.265 137.714 244.925C140.562 248.585 144.424 250.642 148.452 250.642H148.675" stroke="white" stroke-width="3" stroke-miterlimit="10"/>
<path d="M135.814 241.95H114.867C106.448 241.95 98.3742 237.652 92.4212 230.001C86.4682 222.35 83.1238 211.973 83.1238 201.153" stroke="white" stroke-width="3" stroke-miterlimit="10"/>
<path d="M235.116 296.99V310.304C235.115 330.059 229.009 349.003 218.141 362.971L201.564 384.251C194.718 393.055 190.871 404.991 190.868 417.437" stroke="white" stroke-width="3" stroke-miterlimit="10"/>
<path d="M252.138 292.678C252.138 298.237 250.42 303.569 247.361 307.501C244.302 311.432 240.154 313.641 235.828 313.641H235.054" stroke="white" stroke-width="3" stroke-miterlimit="10"/>
<path d="M242.975 292.952H278.899C278.899 292.952 286.326 285.962 280.023 277.991C275.937 272.825 269.322 276.082 269.322 276.082C269.322 276.082 276.36 246.397 254.392 243.317C232.425 240.236 228.192 263.773 231.585 273.91C234.978 284.047 188.4 260.016 182.853 288.548C182.43 290.72 197.64 293.428 212.147 290.537C212.147 290.537 216.793 309.182 233.151 305.651C244.631 303.199 242.975 292.952 242.975 292.952Z" fill="white"/>
<path d="M88.6287 202.44H46.9814C46.9814 202.44 46.1366 175.347 105.291 185.118C105.291 185.118 106.961 158.245 138.647 159.605C170.334 160.965 169.935 203.22 168.668 204.214C167.401 205.209 139.72 204.214 139.72 204.214C139.72 204.214 136.493 224.842 110.435 224.842C93.4075 224.842 88.6287 202.44 88.6287 202.44Z" fill="white"/>
<path d="M282.557 140.892H210.738C204.269 140.892 199.286 133.274 200.644 125.144C201.384 120.698 203.909 116.605 210.097 114.824C223.385 111.024 231.011 116.953 231.011 116.953C231.011 116.953 218.962 74.9351 259.532 74.9108C297.136 74.9108 293.055 106.7 292.49 111.835C291.574 120.155 318.429 103.12 333.615 124.839C348.801 146.558 321.837 167.381 306.2 162.404C290.563 157.427 282.557 140.892 282.557 140.892Z" fill="white"/>
<path d="M169.223 93.9282H226.925C226.925 93.9282 232.264 81.7297 221.173 75.7829C210.083 69.8362 185.823 76.5026 185.823 76.5026C185.823 76.5026 187.451 31.7892 154.778 34.9364C125.127 37.7908 126.926 68.7505 126.926 68.7505C126.926 68.7505 97.5694 59.1625 73.4001 82.7422C69.2571 86.7921 71.1839 92.8364 76.3898 92.8364C83.2329 92.8364 107.839 93.1718 107.839 93.1718C107.839 93.1718 114.791 124.278 145.875 120.362C167.728 117.618 169.223 93.9282 169.223 93.9282Z" fill="white"/>
<path d="M240.754 96.5569C242.195 96.5569 243.364 95.055 243.364 93.2023C243.364 91.3497 242.195 89.8478 240.754 89.8478C239.312 89.8478 238.144 91.3497 238.144 93.2023C238.144 95.055 239.312 96.5569 240.754 96.5569Z" stroke="white" stroke-width="3" stroke-linecap="round" stroke-linejoin="round"/>
<path d="M119.746 61.59C121.143 61.59 122.275 60.1346 122.275 58.3391C122.275 56.5437 121.143 55.0882 119.746 55.0882C118.349 55.0882 117.216 56.5437 117.216 58.3391C117.216 60.1346 118.349 61.59 119.746 61.59Z" stroke="white" stroke-width="3" stroke-linecap="round" stroke-linejoin="round"/>
<path d="M73.7371 215.864C75.763 215.864 77.4054 213.753 77.4054 211.149C77.4054 208.545 75.763 206.435 73.7371 206.435C71.7111 206.435 70.0687 208.545 70.0687 211.149C70.0687 213.753 71.7111 215.864 73.7371 215.864Z" stroke="white" stroke-width="3" stroke-linecap="round" stroke-linejoin="round"/>
<path d="M223.067 267.683C224.508 267.683 225.677 266.181 225.677 264.328C225.677 262.476 224.508 260.974 223.067 260.974C221.625 260.974 220.457 262.476 220.457 264.328C220.457 266.181 221.625 267.683 223.067 267.683Z" stroke="white" stroke-width="3" stroke-linecap="round" stroke-linejoin="round"/>
<path d="M142.904 61.59C145.698 61.59 147.963 58.6791 147.963 55.0882C147.963 51.4974 145.698 48.5865 142.904 48.5865C140.11 48.5865 137.845 51.4974 137.845 55.0882C137.845 58.6791 140.11 61.59 142.904 61.59Z" stroke="white" stroke-width="3" stroke-linecap="round" stroke-linejoin="round"/>
<path d="M297.744 132.811C300.524 132.811 302.779 129.913 302.779 126.339C302.779 122.765 300.524 119.868 297.744 119.868C294.963 119.868 292.708 122.765 292.708 126.339C292.708 129.913 294.963 132.811 297.744 132.811Z" stroke="white" stroke-width="3" stroke-linecap="round" stroke-linejoin="round"/>
<path d="M158.138 195.456C160.234 195.456 161.934 193.271 161.934 190.577C161.934 187.882 160.234 185.697 158.138 185.697C156.041 185.697 154.341 187.882 154.341 190.577C154.341 193.271 156.041 195.456 158.138 195.456Z" stroke="white" stroke-width="3" stroke-linecap="round" stroke-linejoin="round"/>
<path d="M223.067 298.966C225.163 298.966 226.863 296.781 226.863 294.087C226.863 291.392 225.163 289.207 223.067 289.207C220.97 289.207 219.27 291.392 219.27 294.087C219.27 296.781 220.97 298.966 223.067 298.966Z" stroke="white" stroke-width="3" stroke-linecap="round" stroke-linejoin="round"/>
<path d="M156.083 48.9951C157.06 48.9951 157.853 47.9766 157.853 46.7201C157.853 45.4636 157.06 44.4451 156.083 44.4451C155.105 44.4451 154.312 45.4636 154.312 46.7201C154.312 47.9766 155.105 48.9951 156.083 48.9951Z" stroke="white" stroke-width="3" stroke-linecap="round" stroke-linejoin="round"/>
<path d="M287.094 112.067C288.103 112.067 288.921 111.016 288.921 109.719C288.921 108.422 288.103 107.371 287.094 107.371C286.085 107.371 285.267 108.422 285.267 109.719C285.267 111.016 286.085 112.067 287.094 112.067Z" stroke="white" stroke-width="3" stroke-linecap="round" stroke-linejoin="round"/>
<path d="M146.506 194.547C147.515 194.547 148.333 193.496 148.333 192.199C148.333 190.902 147.515 189.851 146.506 189.851C145.497 189.851 144.679 190.902 144.679 192.199C144.679 193.496 145.497 194.547 146.506 194.547Z" stroke="white" stroke-width="3" stroke-linecap="round" stroke-linejoin="round"/>
<path d="M65.1807 197.804C66.1897 197.804 67.0077 196.753 67.0077 195.456C67.0077 194.159 66.1897 193.108 65.1807 193.108C64.1716 193.108 63.3536 194.159 63.3536 195.456C63.3536 196.753 64.1716 197.804 65.1807 197.804Z" stroke="white" stroke-width="3" stroke-linecap="round" stroke-linejoin="round"/>
<path d="M312.26 515.617C328.395 515.617 473.454 521.198 447.263 568.07C421.072 614.943 89.6729 607.715 89.6729 607.715V645.671H894.071L884.105 628.141C884.105 628.141 646.531 608.703 685.032 555.798C710.217 521.198 543.983 514.934 500.661 514.934C457.338 514.934 312.26 515.617 312.26 515.617Z" fill="white"/>
<path d="M335.941 543.96C348.739 543.96 359.114 541.704 359.114 538.922C359.114 536.139 348.739 533.884 335.941 533.884C323.143 533.884 312.768 536.139 312.768 538.922C312.768 541.704 323.143 543.96 335.941 543.96Z" stroke="white" stroke-width="3" stroke-linecap="round" stroke-linejoin="round"/>
<path d="M375.989 556.665C380.859 556.665 384.806 555.365 384.806 553.761C384.806 552.158 380.859 550.858 375.989 550.858C371.119 550.858 367.172 552.158 367.172 553.761C367.172 555.365 371.119 556.665 375.989 556.665Z" stroke="white" stroke-width="3" stroke-linecap="round" stroke-linejoin="round"/>
<path d="M718.787 523.54H888.295" stroke="white" stroke-width="3" stroke-linecap="round" stroke-linejoin="round"/>
<path d="M657.906 151.176C677.851 151.176 694.02 130.395 694.02 104.76C694.02 79.126 677.851 58.3452 657.906 58.3452C637.961 58.3452 621.792 79.126 621.792 104.76C621.792 130.395 637.961 151.176 657.906 151.176Z" fill="white"/>
<path d="M707.132 247.098C683.024 240.59 681.226 261.023 681.226 261.023H858.293C860.472 229.813 829.749 236.095 829.749 236.095C829.749 236.095 833.327 213.717 806.172 206.093C779.018 198.469 764.658 219.511 766.917 236.772C766.917 236.772 754.184 214.644 732.938 223.275C716.604 229.91 733.365 244.134 729.93 249.172C726.394 254.338 719.375 250.404 707.132 247.098Z" fill="white" stroke="white" stroke-width="3" stroke-linecap="round" stroke-linejoin="round"/>
<path d="M435.333 222.762H292.386C292.386 222.762 294.042 204.343 315.264 210.466C343.785 218.694 356.19 213.125 354.653 201.317C352.66 186.069 365.335 167.503 389.296 174.237C413.256 180.97 410.115 200.726 410.115 200.726C410.115 200.726 437.255 195.175 435.333 222.762Z" fill="white" stroke="white" stroke-width="3" stroke-linecap="round" stroke-linejoin="round"/>
<path d="M317.153 233.704H387.592" stroke="white" stroke-width="3" stroke-linecap="round" stroke-linejoin="round"/>
<path d="M527.203 119.026H658.826C658.826 119.026 657.185 100.729 636.114 106.828C607.792 114.995 605.785 106.828 607.318 95.1175C609.297 79.9914 596.707 58.8942 572.903 65.5728C549.099 72.2515 554.286 107.773 554.286 107.773C554.286 107.773 531.032 100.741 527.203 119.026Z" fill="white" stroke="white" stroke-width="3" stroke-linecap="round" stroke-linejoin="round"/>
<path d="M590.376 127.822H660.815" stroke="white" stroke-width="3" stroke-linecap="round" stroke-linejoin="round"/>
<path d="M959.341 514.311C959.341 514.311 958.867 460.455 914.614 462.999C914.614 462.999 900.24 344.234 818.416 332.17C718.891 317.495 699.415 459.034 699.415 459.034C699.415 459.034 605.064 422.811 592.958 514.311H959.341Z" fill="white"/>
<path d="M959.341 514.311C959.341 514.311 958.867 460.455 914.614 462.999C914.614 462.999 900.24 344.234 818.416 332.17C718.891 317.495 699.415 459.034 699.415 459.034C699.415 459.034 605.064 422.811 592.958 514.311H959.341Z" stroke="white" stroke-width="3" stroke-linecap="round" stroke-linejoin="round"/>
<path d="M809.993 331.286C809.993 331.286 778.25 439.852 805.2 514.311" stroke="white" stroke-width="3" stroke-linecap="round" stroke-linejoin="round"/>
<path d="M830.479 334.848C830.479 334.848 821.89 418.987 794.887 460.669" stroke="white" stroke-width="3" stroke-linecap="round" stroke-linejoin="round"/>
<path d="M788.808 332.524C788.808 332.524 780.508 378.311 796.254 405.849" stroke="white" stroke-width="3" stroke-linecap="round" stroke-linejoin="round"/>
<path d="M855.119 346.863C855.119 346.863 840.032 397.981 816.679 407.429" stroke="white" stroke-width="3" stroke-linecap="round" stroke-linejoin="round"/>
<path d="M888.85 385.538C888.85 385.538 817.045 428.233 808.479 514.311" stroke="white" stroke-width="3" stroke-linecap="round" stroke-linejoin="round"/>
<path d="M867.144 356.896C867.144 356.896 855.797 375.694 860.595 408.423" stroke="white" stroke-width="3" stroke-linecap="round" stroke-linejoin="round"/>
<path d="M822.322 462.785C838.931 430.795 894.763 439.608 900.624 410.277" stroke="white" stroke-width="3" stroke-linecap="round" stroke-linejoin="round"/>
<path d="M910.315 441.017C910.315 441.017 893.577 448.861 870.167 434.003" stroke="white" stroke-width="3" stroke-linecap="round" stroke-linejoin="round"/>
<path d="M914.614 462.999C907.458 463.493 878.495 477.088 875.226 514.311" stroke="white" stroke-width="3" stroke-linecap="round" stroke-linejoin="round"/>
<path d="M930.797 464.963C930.797 464.963 915.013 476.441 917.509 514.311" stroke="white" stroke-width="3" stroke-linecap="round" stroke-linejoin="round"/>
<path d="M942.001 471.33C942.001 471.33 938.147 500.728 917.257 507.523" stroke="white" stroke-width="3" stroke-linecap="round" stroke-linejoin="round"/>
<path d="M910.315 464.054C910.315 464.054 910.789 485.547 918.468 491.055" stroke="white" stroke-width="3" stroke-linecap="round" stroke-linejoin="round"/>
<path d="M883.943 486.719C883.943 486.719 907.097 482.278 913.575 514.324" stroke="white" stroke-width="3" stroke-linecap="round" stroke-linejoin="round"/>
<path d="M879.497 495.697C879.497 495.697 891.992 499.85 900.605 491.055" stroke="white" stroke-width="3" stroke-linecap="round" stroke-linejoin="round"/>
<path d="M951.653 483.669C951.653 483.669 934.408 489.384 935.162 514.305C935.162 514.305 936.928 499.417 945.74 499.094C954.553 498.771 954.283 514.305 954.283 514.305" stroke="white" stroke-width="3" stroke-linecap="round" stroke-linejoin="round"/>
<path d="M794.351 440.181C794.351 408.423 747.773 385.538 752.438 349.956" stroke="white" stroke-width="3" stroke-linecap="round" stroke-linejoin="round"/>
<path d="M722.137 389.076C722.137 389.076 735.568 405.05 764.99 387.655" stroke="white" stroke-width="3" stroke-linecap="round" stroke-linejoin="round"/>
<path d="M767.32 339.995C767.32 339.995 781.913 342.887 788.429 382.66" stroke="white" stroke-width="3" stroke-linecap="round" stroke-linejoin="round"/>
<path d="M712.604 410.277C712.604 410.277 748.779 431.765 741.224 514.311" stroke="white" stroke-width="3" stroke-linecap="round" stroke-linejoin="round"/>
<path d="M748.528 395.065C748.528 395.065 760.197 447.616 741.267 472.873" stroke="white" stroke-width="3" stroke-linecap="round" stroke-linejoin="round"/>
<path d="M707.792 424.031C707.792 424.031 711.536 437.693 729.906 431.655" stroke="white" stroke-width="3" stroke-linecap="round" stroke-linejoin="round"/>
<path d="M754.825 514.311C754.825 514.311 750.293 481.296 771.952 481.296C793.611 481.296 794.351 514.311 794.351 514.311" stroke="white" stroke-width="3" stroke-linecap="round" stroke-linejoin="round"/>
<path d="M752.087 434.003C759.362 435.326 791.418 447.135 798.309 488.658" stroke="white" stroke-width="3" stroke-linecap="round" stroke-linejoin="round"/>
<path d="M699.416 459.065C707.792 462.785 729.389 481.943 732.412 514.311" stroke="white" stroke-width="3" stroke-linecap="round" stroke-linejoin="round"/>
<path d="M701.684 514.311C701.684 514.311 693.816 480.985 700.142 454.667" stroke="white" stroke-width="3" stroke-linecap="round" stroke-linejoin="round"/>
<path d="M666.918 452.258C666.918 452.258 683.798 462.517 678.008 514.311" stroke="white" stroke-width="3" stroke-linecap="round" stroke-linejoin="round"/>
<path d="M687.604 455.552C687.604 455.552 689.241 481.693 679.218 489.427" stroke="white" stroke-width="3" stroke-linecap="round" stroke-linejoin="round"/>
<path d="M839.705 514.311C839.956 505.248 846.904 464.408 900.605 469.128" stroke="white" stroke-width="3" stroke-linecap="round" stroke-linejoin="round"/>
<path d="M636.446 455.552C636.446 455.552 649.834 484.73 673.993 462.297" stroke="white" stroke-width="3" stroke-linecap="round" stroke-linejoin="round"/>
<path d="M648.286 514.311C648.286 514.311 639.972 503.632 625.365 505.571C610.758 507.511 608.993 514.311 608.993 514.311" stroke="white" stroke-width="3" stroke-linecap="round" stroke-linejoin="round"/>
<path d="M673.068 514.311C673.068 514.311 669.191 490.573 649.544 493.867C629.897 497.16 629.394 514.311 629.394 514.311" stroke="white" stroke-width="3" stroke-linecap="round" stroke-linejoin="round"/>
<path d="M77.1872 645.652H279.691C280.697 600.115 238.405 603.135 238.405 603.135C238.405 603.135 237.721 544.942 176.949 531.487C151.579 525.876 67.1123 531.408 77.1872 645.652Z" fill="white"/>
<path d="M77.1872 645.652H279.691C280.697 600.115 238.405 603.135 238.405 603.135C238.405 603.135 237.721 544.942 176.949 531.487C151.579 525.876 67.1123 531.408 77.1872 645.652Z" stroke="white" stroke-width="3" stroke-linecap="round" stroke-linejoin="round"/>
<path d="M170.728 530.499C170.728 530.499 150.321 583.818 168.45 645.652" stroke="white" stroke-width="3" stroke-linecap="round" stroke-linejoin="round"/>
<path d="M154.341 530.346C154.341 530.346 151.057 559.934 161.64 575.438" stroke="white" stroke-width="3" stroke-linecap="round" stroke-linejoin="round"/>
<path d="M191.21 535.848C191.21 535.848 182.615 579.677 161.175 601.994" stroke="white" stroke-width="3" stroke-linecap="round" stroke-linejoin="round"/>
<path d="M207.644 544.808C207.644 544.808 190.854 571.748 179.023 573.736" stroke="white" stroke-width="3" stroke-linecap="round" stroke-linejoin="round"/>
<path d="M124.743 537.696C124.743 537.696 129.901 591.137 161.64 609.008" stroke="white" stroke-width="3" stroke-linecap="round" stroke-linejoin="round"/>
<path d="M85.1028 578.481C85.1028 578.481 108.166 550.486 136.294 578.481" stroke="white" stroke-width="3" stroke-linecap="round" stroke-linejoin="round"/>
<path d="M165.531 634.375C165.531 596.95 225.582 593.254 225.853 564.099" stroke="white" stroke-width="3" stroke-linecap="round" stroke-linejoin="round"/>
<path d="M214.662 550.59C214.662 550.59 205.484 561.434 212.664 585.093" stroke="white" stroke-width="3" stroke-linecap="round" stroke-linejoin="round"/>
<path d="M238.386 603.135C233.165 603.568 205.978 617.163 205.475 645.652" stroke="white" stroke-width="3" stroke-linecap="round" stroke-linejoin="round"/>
<path d="M247.284 645.652C245.015 640.773 228.524 595.907 184.884 603.135" stroke="white" stroke-width="3" stroke-linecap="round" stroke-linejoin="round"/>
<path d="M252.437 604.769C252.437 604.769 252.656 626.885 238.385 628.66" stroke="white" stroke-width="3" stroke-linecap="round" stroke-linejoin="round"/>
<path d="M201.949 603.135C201.949 603.135 196.971 614.607 207.644 632.881" stroke="white" stroke-width="3" stroke-linecap="round" stroke-linejoin="round"/>
<path d="M179.023 645.652C179.023 645.652 179.023 634.106 187.09 634.375C195.158 634.643 195.699 645.652 195.699 645.652" stroke="white" stroke-width="3" stroke-linecap="round" stroke-linejoin="round"/>
<path d="M153.862 645.652C153.862 645.652 145.794 607.319 116.818 609.008C87.841 610.698 85.1028 645.652 85.1028 645.652" stroke="white" stroke-width="3" stroke-linecap="round" stroke-linejoin="round"/>
<path d="M146.786 645.652C146.786 645.652 142.99 628.05 127.899 627.3C112.808 626.55 112.784 645.652 112.784 645.652" stroke="white" stroke-width="3" stroke-linecap="round" stroke-linejoin="round"/>
<path d="M118.165 567.094C118.165 567.094 112.034 593.693 125.635 609.789" stroke="white" stroke-width="3" stroke-linecap="round" stroke-linejoin="round"/>
<path d="M107.512 566.204C107.512 566.204 103.582 601.219 77.5811 607.41" stroke="white" stroke-width="3" stroke-linecap="round" stroke-linejoin="round"/>
<path d="M137.646 533.182C137.646 533.182 143.194 552.895 128.715 558.116" stroke="white" stroke-width="3" stroke-linecap="round" stroke-linejoin="round"/>
<path d="M274.713 621.603C274.713 621.603 263.153 622.664 267.433 645.652" stroke="white" stroke-width="3" stroke-linecap="round" stroke-linejoin="round"/>
<path d="M136.293 516.263C136.293 516.263 163.495 506.34 183.982 482.169C201.488 461.51 215.55 436.424 237.712 436.845C259.874 437.266 262.564 466.628 262.564 466.628C262.564 466.628 272.971 442.03 302.19 451.52C331.409 461.01 314.282 490.47 327.712 491.397C341.142 492.324 380.772 465.335 380.772 516.263H136.293Z" fill="white"/>
<path d="M264.619 517.434C309.997 464.054 302.874 414.522 302.874 414.522C253.994 446.281 262.09 516.477 262.09 516.477" stroke="white" stroke-width="3" stroke-linecap="round" stroke-linejoin="round"/>
<path d="M267.177 516.477C267.177 516.477 273.93 477.003 245.219 464.7C216.508 452.398 260.353 516.477 260.353 516.477" stroke="white" stroke-width="3" stroke-linecap="round" stroke-linejoin="round"/>
<path d="M333.853 478.973C335.879 478.973 337.521 476.862 337.521 474.258C337.521 471.654 335.879 469.543 333.853 469.543C331.827 469.543 330.184 471.654 330.184 474.258C330.184 476.862 331.827 478.973 333.853 478.973Z" stroke="white" stroke-width="3" stroke-linecap="round" stroke-linejoin="round"/>
<path d="M90.9589 379.5C90.9589 379.5 87.4044 459.912 92.131 494.526" stroke="white" stroke-width="3" stroke-miterlimit="10"/>
<path d="M101.228 389.692C101.228 389.692 100.531 404.781 90.3135 408.234" stroke="white" stroke-width="3" stroke-miterlimit="10"/>
<path d="M72.1331 406.337C72.1331 406.337 76.9783 436.095 89.6918 449.513" stroke="white" stroke-width="3" stroke-miterlimit="10"/>
<path d="M63.7571 410.002C63.7571 410.002 68.1752 418.584 75.0326 419.042" stroke="white" stroke-width="3" stroke-miterlimit="10"/>
<path d="M83.2235 388.893C83.2235 388.893 85.3448 398.444 90.2755 399.78" stroke="white" stroke-width="3" stroke-miterlimit="10"/>
<path d="M91.0395 380.147C96.3547 380.147 100.664 374.609 100.664 367.777C100.664 360.946 96.3547 355.408 91.0395 355.408C85.7242 355.408 81.4154 360.946 81.4154 367.777C81.4154 374.609 85.7242 380.147 91.0395 380.147Z" fill="white"/>
<path d="M101.413 391.955C103.159 391.955 104.574 390.136 104.574 387.893C104.574 385.649 103.159 383.831 101.413 383.831C99.668 383.831 98.2529 385.649 98.2529 387.893C98.2529 390.136 99.668 391.955 101.413 391.955Z" fill="white"/>
<path d="M82.7157 391.052C84.2568 391.052 85.5061 389.446 85.5061 387.466C85.5061 385.485 84.2568 383.879 82.7157 383.879C81.1746 383.879 79.9253 385.485 79.9253 387.466C79.9253 389.446 81.1746 391.052 82.7157 391.052Z" fill="white"/>
<path d="M63.2493 412.503C64.6462 412.503 65.7787 411.048 65.7787 409.252C65.7787 407.457 64.6462 406.001 63.2493 406.001C61.8523 406.001 60.7198 407.457 60.7198 409.252C60.7198 411.048 61.8523 412.503 63.2493 412.503Z" fill="white"/>
<path d="M71.9006 406.874C75.161 406.874 77.8041 403.477 77.8041 399.286C77.8041 395.096 75.161 391.699 71.9006 391.699C68.6402 391.699 65.9971 395.096 65.9971 399.286C65.9971 403.477 68.6402 406.874 71.9006 406.874Z" fill="white"/>
<path d="M70.4721 516.477C70.4721 516.477 36.0096 504.309 43.1043 483.889C47.2994 471.806 73.3242 504.821 73.3242 504.821C73.3242 504.821 49.4823 472.495 53.3453 413.119C53.3453 413.119 81.9422 439.218 92.131 481.516C92.131 481.516 97.8257 419.578 118.161 397.999C118.161 397.999 123.03 412.241 116.818 458.857C116.818 458.857 137.3 429.075 150.397 421.091C150.397 421.091 142.169 464.469 130.585 484.755C130.585 484.755 144.185 475.905 150.397 489.5C156.609 503.095 136.294 515.617 136.294 515.617L70.4721 516.477Z" fill="white"/>
<path d="M54.0999 415.071C54.0999 415.071 76.5133 495.331 90.9542 515.617" stroke="white" stroke-width="3" stroke-linecap="round" stroke-linejoin="round"/>
<path d="M117.904 399.628C117.904 399.628 102.424 503.589 96.8577 515.806" stroke="white" stroke-width="3" stroke-linecap="round" stroke-linejoin="round"/>
<path d="M148.879 423.366C148.879 423.366 117.15 497.441 100.863 515.464" stroke="white" stroke-width="3" stroke-linecap="round" stroke-linejoin="round"/>
<path d="M149.33 487.493C149.33 487.493 128.924 511.115 114.298 515.58" stroke="white" stroke-width="3" stroke-linecap="round" stroke-linejoin="round"/>
<path d="M43.6073 483.889C43.6073 483.889 61.0664 509.676 78.7247 515.501" stroke="white" stroke-width="3" stroke-linecap="round" stroke-linejoin="round"/>
<path d="M70.4722 515.501H136.294" stroke="white" stroke-width="3" stroke-linecap="round" stroke-linejoin="round"/>
<path d="M909.119 639.071C909.119 639.071 943.581 626.873 936.486 606.483C932.291 594.4 906.262 627.416 906.262 627.416C906.262 627.416 930.108 595.09 926.245 535.714C926.245 535.714 897.644 561.812 887.46 604.11C887.46 604.11 881.765 542.173 861.43 520.594C861.43 520.594 856.561 534.835 862.773 581.452C862.773 581.452 842.291 551.669 829.193 543.685C829.193 543.685 837.422 587.063 849.006 607.349C849.006 607.349 835.405 598.499 829.193 612.094C822.981 625.689 843.297 638.211 843.297 638.211L909.119 639.071Z" fill="white"/>
<path d="M925.486 537.665C925.486 537.665 903.073 617.925 888.632 638.211" stroke="white" stroke-width="3" stroke-linecap="round" stroke-linejoin="round"/>
<path d="M861.687 522.222C861.687 522.222 877.162 626.183 882.728 638.4" stroke="white" stroke-width="3" stroke-linecap="round" stroke-linejoin="round"/>
<path d="M830.712 545.96C830.712 545.96 862.441 620.036 878.728 638.059" stroke="white" stroke-width="3" stroke-linecap="round" stroke-linejoin="round"/>
<path d="M830.261 610.088C830.261 610.088 850.667 633.71 865.293 638.144" stroke="white" stroke-width="3" stroke-linecap="round" stroke-linejoin="round"/>
<path d="M935.984 606.483C935.984 606.483 918.52 632.271 900.866 638.095" stroke="white" stroke-width="3" stroke-linecap="round" stroke-linejoin="round"/>
<path d="M909.119 638.095H843.297" stroke="white" stroke-width="3" stroke-linecap="round" stroke-linejoin="round"/>
<path d="M670.871 645.652C670.871 645.652 671.82 593.736 707.379 593.534C732.568 593.388 739.606 608.74 739.606 608.74C739.606 608.74 714.929 555.676 760.525 543.679C806.12 531.682 816.66 602.97 837.128 610.039C857.743 617.163 906.931 590.186 894.265 645.652H670.871Z" fill="white"/>
<path d="M786.436 647.476C745.97 619.017 751.048 568.851 751.048 568.851C791.665 584.989 788.149 646.195 788.149 646.195" stroke="white" stroke-width="3" stroke-linecap="round" stroke-linejoin="round"/>
<path d="M784.447 647.36C784.447 647.36 777.941 618.011 800.834 604.611C821.486 592.522 789.416 645.793 789.416 645.793" stroke="white" stroke-width="3" stroke-linecap="round" stroke-linejoin="round"/>
<path d="M720.79 584.007C723.164 584.007 725.089 581.533 725.089 578.481C725.089 575.43 723.164 572.956 720.79 572.956C718.415 572.956 716.49 575.43 716.49 578.481C716.49 581.533 718.415 584.007 720.79 584.007Z" stroke="white" stroke-width="3" stroke-linecap="round" stroke-linejoin="round"/>
<path d="M907.97 620.401C909.996 620.401 911.639 618.291 911.639 615.687C911.639 613.083 909.996 610.972 907.97 610.972C905.944 610.972 904.302 613.083 904.302 615.687C904.302 618.291 905.944 620.401 907.97 620.401Z" stroke="white" stroke-width="3" stroke-linecap="round" stroke-linejoin="round"/>
<path d="M692.772 622.158C695.552 622.158 697.807 619.261 697.807 615.687C697.807 612.113 695.552 609.216 692.772 609.216C689.991 609.216 687.737 612.113 687.737 615.687C687.737 619.261 689.991 622.158 692.772 622.158Z" stroke="white" stroke-width="3" stroke-linecap="round" stroke-linejoin="round"/>
</svg>
