<svg version="1.1" id="Layer_1" xmlns="http://www.w3.org/2000/svg" xmlns:xlink="http://www.w3.org/1999/xlink" x="0px" y="0px"
	 width="100%" viewBox="0 0 1200 1200" enable-background="new 0 0 1200 1200" xml:space="preserve">
<path fill="#000000" opacity="1.000000" stroke="none" 
	d="
M646.000000,1201.000000 
	C430.666656,1201.000000 215.833328,1201.000000 1.000000,1201.000000 
	C1.000000,801.000000 1.000000,401.000000 1.000000,1.000000 
	C401.000000,1.000000 801.000000,1.000000 1201.000000,1.000000 
	C1201.000000,401.000000 1201.000000,801.000000 1201.000000,1201.000000 
	C1016.166687,1201.000000 831.333313,1201.000000 646.000000,1201.000000 
M421.852142,547.337158 
	C413.669769,588.507202 405.480011,629.675781 397.312714,670.848816 
	C396.048309,677.222839 396.683411,677.973083 403.507111,677.982666 
	C426.500153,678.015137 449.510834,678.531799 472.478973,677.775269 
	C484.003662,677.395691 495.824341,675.953613 506.863953,672.756897 
	C541.448853,662.741882 566.619080,633.658142 567.279602,599.176086 
	C567.697449,577.365723 560.500793,559.757874 541.308777,548.055481 
	C540.108948,547.323853 539.119995,546.246460 537.566711,544.936890 
	C542.185730,541.257629 546.475830,538.166565 550.396362,534.661987 
	C568.905945,518.116333 578.805176,497.920258 575.681152,472.608612 
	C574.532104,463.298096 570.535828,455.182770 563.889893,448.326294 
	C550.428040,434.438049 533.114868,429.941406 514.856262,429.205688 
	C494.062927,428.367767 473.208557,429.141083 452.383881,428.917725 
	C446.951996,428.859436 444.795013,431.022797 443.791687,436.198669 
	C436.659668,472.991394 429.291534,509.738342 421.852142,547.337158 
M850.198303,581.360779 
	C841.212219,569.831543 826.424622,567.404968 814.046692,575.264099 
	C811.739258,576.729126 808.635620,578.989197 806.567078,578.426758 
	C797.653992,576.003479 788.657043,573.367554 780.343689,569.430237 
	C774.123657,566.484436 773.347290,561.846985 778.101990,556.853699 
	C786.557678,547.973694 795.487854,539.451965 809.106018,538.863098 
	C824.916748,538.179504 836.726074,522.518921 833.289490,507.399994 
	C830.751099,496.232208 822.640137,488.298737 811.743347,486.325195 
	C801.738708,484.513275 790.677002,489.116547 785.296082,497.835388 
	C779.242737,507.643951 778.934204,517.802734 785.555847,527.423218 
	C787.995972,530.968323 787.917236,533.107056 784.766113,535.774902 
	C777.017761,542.335022 769.510071,549.185181 761.628723,555.577332 
	C760.134216,556.789429 757.266235,557.027222 755.198669,556.690613 
	C745.669739,555.139526 736.266907,552.545837 726.692993,551.601807 
	C712.336670,550.186340 697.881592,549.621155 683.453735,549.184814 
	C679.785828,549.073914 676.009399,550.650696 672.399841,551.814514 
	C671.464233,552.116211 670.570068,553.739441 670.437195,554.849060 
	C670.367737,555.429321 671.909729,556.378662 672.874573,556.858459 
	C673.899231,557.368103 675.102722,557.517334 676.227295,557.827087 
	C695.180115,563.046753 714.137207,568.250610 733.077209,573.516602 
	C734.685791,573.963806 736.178772,574.826904 738.557068,575.856995 
	C733.948608,579.966492 729.975586,583.216064 726.351990,586.817322 
	C722.136536,591.006653 717.266907,592.140625 711.424194,592.099731 
	C680.428406,591.883240 649.430115,591.961182 618.433167,592.065247 
	C615.515930,592.075073 612.358704,592.456055 609.777954,593.660828 
	C608.245667,594.376099 606.694214,597.134155 606.859924,598.804138 
	C607.018738,600.404114 609.136780,602.507629 610.839783,603.093628 
	C613.427002,603.983887 616.399170,603.963196 619.208496,603.968140 
	C648.872498,604.020752 678.536682,604.005615 708.200806,604.000122 
	C717.033203,603.998474 725.876648,604.209534 734.691406,603.807068 
	C737.420837,603.682556 741.744446,602.516968 742.468567,600.690430 
	C745.500000,593.043701 752.821838,590.067444 757.968018,584.809998 
	C760.671753,582.047791 763.809204,581.697510 767.587036,582.825928 
	C777.481445,585.781433 787.466187,588.444092 797.456848,591.063232 
	C800.788635,591.936584 802.258850,593.333008 802.364929,597.189514 
	C802.811707,613.425598 817.317261,625.509094 832.308899,623.522583 
	C851.230835,621.015381 862.435547,598.416748 850.198303,581.360779 
z"/>
<path fill="#171717" opacity="1.000000" stroke="none" 
	d="
M421.925354,546.918518 
	C429.291534,509.738342 436.659668,472.991394 443.791687,436.198669 
	C444.795013,431.022797 446.951996,428.859436 452.383881,428.917725 
	C473.208557,429.141083 494.062927,428.367767 514.856262,429.205688 
	C533.114868,429.941406 550.428040,434.438049 563.889893,448.326294 
	C570.535828,455.182770 574.532104,463.298096 575.681152,472.608612 
	C578.805176,497.920258 568.905945,518.116333 550.396362,534.661987 
	C546.475830,538.166565 542.185730,541.257629 537.566711,544.936890 
	C539.119995,546.246460 540.108948,547.323853 541.308777,548.055481 
	C560.500793,559.757874 567.697449,577.365723 567.279602,599.176086 
	C566.619080,633.658142 541.448853,662.741882 506.863953,672.756897 
	C495.824341,675.953613 484.003662,677.395691 472.478973,677.775269 
	C449.510834,678.531799 426.500153,678.015137 403.507111,677.982666 
	C396.683411,677.973083 396.048309,677.222839 397.312714,670.848816 
	C405.480011,629.675781 413.669769,588.507202 421.925354,546.918518 
M442.857208,593.321533 
	C439.352142,610.778320 435.819183,628.229553 432.358765,645.695190 
	C431.301788,651.029907 432.028198,651.931213 437.474030,651.963318 
	C449.624237,652.035095 461.820892,652.640991 473.911011,651.787903 
	C483.259247,651.128174 492.951294,649.866394 501.658142,646.631836 
	C526.538208,637.388855 538.153931,616.416565 534.552246,589.984558 
	C532.501465,574.934448 519.878845,564.563049 501.613861,563.313293 
	C485.870544,562.236145 470.040771,562.427124 454.249725,562.038208 
	C450.457031,561.944763 448.480560,563.717651 447.809235,567.481750 
	C446.319550,575.834534 444.618439,584.149536 442.857208,593.321533 
M462.854950,491.337616 
	C460.296753,504.058350 457.708954,516.773193 455.192535,529.502197 
	C453.864960,536.217468 454.494354,536.953979 461.549011,536.982727 
	C472.697296,537.028198 483.870422,536.544556 494.986359,537.146729 
	C503.534149,537.609802 510.499756,534.945190 517.119080,529.952454 
	C525.593262,523.560669 532.885620,516.157288 538.283081,506.995636 
	C543.848083,497.549469 545.462036,487.177612 543.399231,476.635773 
	C540.811035,463.408783 530.643677,457.666718 518.569946,456.312286 
	C504.243896,454.705200 489.735260,454.722443 475.305054,454.050873 
	C471.416473,453.869873 469.647308,456.003296 468.970032,459.634491 
	C467.048584,469.935760 464.999969,480.213348 462.854950,491.337616 
z"/>
<path fill="#171717" opacity="1.000000" stroke="none" 
	d="
M850.401855,581.660461 
	C862.435547,598.416748 851.230835,621.015381 832.308899,623.522583 
	C817.317261,625.509094 802.811707,613.425598 802.364929,597.189514 
	C802.258850,593.333008 800.788635,591.936584 797.456848,591.063232 
	C787.466187,588.444092 777.481445,585.781433 767.587036,582.825928 
	C763.809204,581.697510 760.671753,582.047791 757.968018,584.809998 
	C752.821838,590.067444 745.500000,593.043701 742.468567,600.690430 
	C741.744446,602.516968 737.420837,603.682556 734.691406,603.807068 
	C725.876648,604.209534 717.033203,603.998474 708.200806,604.000122 
	C678.536682,604.005615 648.872498,604.020752 619.208496,603.968140 
	C616.399170,603.963196 613.427002,603.983887 610.839783,603.093628 
	C609.136780,602.507629 607.018738,600.404114 606.859924,598.804138 
	C606.694214,597.134155 608.245667,594.376099 609.777954,593.660828 
	C612.358704,592.456055 615.515930,592.075073 618.433167,592.065247 
	C649.430115,591.961182 680.428406,591.883240 711.424194,592.099731 
	C717.266907,592.140625 722.136536,591.006653 726.351990,586.817322 
	C729.975586,583.216064 733.948608,579.966492 738.557068,575.856995 
	C736.178772,574.826904 734.685791,573.963806 733.077209,573.516602 
	C714.137207,568.250610 695.180115,563.046753 676.227295,557.827087 
	C675.102722,557.517334 673.899231,557.368103 672.874573,556.858459 
	C671.909729,556.378662 670.367737,555.429321 670.437195,554.849060 
	C670.570068,553.739441 671.464233,552.116211 672.399841,551.814514 
	C676.009399,550.650696 679.785828,549.073914 683.453735,549.184814 
	C697.881592,549.621155 712.336670,550.186340 726.692993,551.601807 
	C736.266907,552.545837 745.669739,555.139526 755.198669,556.690613 
	C757.266235,557.027222 760.134216,556.789429 761.628723,555.577332 
	C769.510071,549.185181 777.017761,542.335022 784.766113,535.774902 
	C787.917236,533.107056 787.995972,530.968323 785.555847,527.423218 
	C778.934204,517.802734 779.242737,507.643951 785.296082,497.835388 
	C790.677002,489.116547 801.738708,484.513275 811.743347,486.325195 
	C822.640137,488.298737 830.751099,496.232208 833.289490,507.399994 
	C836.726074,522.518921 824.916748,538.179504 809.106018,538.863098 
	C795.487854,539.451965 786.557678,547.973694 778.101990,556.853699 
	C773.347290,561.846985 774.123657,566.484436 780.343689,569.430237 
	C788.657043,573.367554 797.653992,576.003479 806.567078,578.426758 
	C808.635620,578.989197 811.739258,576.729126 814.046692,575.264099 
	C826.424622,567.404968 841.212219,569.831543 850.401855,581.660461 
M799.915405,499.205292 
	C792.737183,504.253052 790.246399,511.189362 793.144104,518.061829 
	C796.084229,525.034851 803.448669,529.056824 810.462891,527.520142 
	C819.139160,525.619324 824.251953,517.067322 821.824646,508.515747 
	C819.097534,498.908203 810.672485,495.079132 799.915405,499.205292 
M843.663757,600.788696 
	C846.389282,587.095398 834.038940,578.613586 822.809937,583.244568 
	C816.090942,586.015625 813.081970,592.151672 814.216736,600.004883 
	C815.173340,606.624939 820.459534,611.530151 827.394165,612.232666 
	C834.655334,612.968201 840.566650,609.055786 843.663757,600.788696 
z"/>
<path fill="#000000" opacity="1.000000" stroke="none" 
	d="
M442.930359,592.900757 
	C444.618439,584.149536 446.319550,575.834534 447.809235,567.481750 
	C448.480560,563.717651 450.457031,561.944763 454.249725,562.038208 
	C470.040771,562.427124 485.870544,562.236145 501.613861,563.313293 
	C519.878845,564.563049 532.501465,574.934448 534.552246,589.984558 
	C538.153931,616.416565 526.538208,637.388855 501.658142,646.631836 
	C492.951294,649.866394 483.259247,651.128174 473.911011,651.787903 
	C461.820892,652.640991 449.624237,652.035095 437.474030,651.963318 
	C432.028198,651.931213 431.301788,651.029907 432.358765,645.695190 
	C435.819183,628.229553 439.352142,610.778320 442.930359,592.900757 
z"/>
<path fill="#000000" opacity="1.000000" stroke="none" 
	d="
M462.928162,490.918945 
	C464.999969,480.213348 467.048584,469.935760 468.970032,459.634491 
	C469.647308,456.003296 471.416473,453.869873 475.305054,454.050873 
	C489.735260,454.722443 504.243896,454.705200 518.569946,456.312286 
	C530.643677,457.666718 540.811035,463.408783 543.399231,476.635773 
	C545.462036,487.177612 543.848083,497.549469 538.283081,506.995636 
	C532.885620,516.157288 525.593262,523.560669 517.119080,529.952454 
	C510.499756,534.945190 503.534149,537.609802 494.986359,537.146729 
	C483.870422,536.544556 472.697296,537.028198 461.549011,536.982727 
	C454.494354,536.953979 453.864960,536.217468 455.192535,529.502197 
	C457.708954,516.773193 460.296753,504.058350 462.928162,490.918945 
z"/>
<path fill="#000000" opacity="1.000000" stroke="none" 
	d="
M800.253601,499.035522 
	C810.672485,495.079132 819.097534,498.908203 821.824646,508.515747 
	C824.251953,517.067322 819.139160,525.619324 810.462891,527.520142 
	C803.448669,529.056824 796.084229,525.034851 793.144104,518.061829 
	C790.246399,511.189362 792.737183,504.253052 800.253601,499.035522 
z"/>
<path fill="#000000" opacity="1.000000" stroke="none" 
	d="
M843.572632,601.187012 
	C840.566650,609.055786 834.655334,612.968201 827.394165,612.232666 
	C820.459534,611.530151 815.173340,606.624939 814.216736,600.004883 
	C813.081970,592.151672 816.090942,586.015625 822.809937,583.244568 
	C834.038940,578.613586 846.389282,587.095398 843.572632,601.187012 
z"/>
</svg>